<?xml version="1.0" standalone="no"?>
<!DOCTYPE svg PUBLIC "-//W3C//DTD SVG 20010904//EN"
 "http://www.w3.org/TR/2001/REC-SVG-20010904/DTD/svg10.dtd">
<svg version="1.0" xmlns="http://www.w3.org/2000/svg"
 width="512.000000pt" height="512.000000pt" viewBox="0 0 512.000000 512.000000"
 preserveAspectRatio="xMidYMid meet">

<g transform="translate(0.000000,512.000000) scale(0.100000,-0.100000)"
fill="#000000" stroke="none">
<path d="M2370 5114 c-19 -2 -78 -9 -130 -15 -548 -62 -1083 -325 -1489 -730
-405 -406 -652 -907 -732 -1489 -18 -125 -18 -515 0 -640 80 -582 327 -1083
732 -1489 658 -657 1607 -906 2504 -654 929 260 1646 1043 1819 1987 156 845
-103 1682 -705 2285 -399 398 -879 639 -1449 726 -100 15 -472 28 -550 19z
m400 -305 c364 -33 721 -158 1035 -363 90 -59 235 -172 235 -184 0 -17 -3178
-3184 -3189 -3178 -21 13 -150 187 -206 276 -548 886 -433 2009 282 2760 474
498 1153 752 1843 689z m1562 -846 c696 -874 639 -2141 -133 -2957 -735 -777
-1921 -930 -2832 -365 -88 55 -256 178 -277 204 -12 15 169 199 1576 1606 874
874 1592 1589 1596 1589 4 0 36 -35 70 -77z"/>
<path d="M2305 4146 c-83 -20 -146 -56 -211 -120 -71 -71 -109 -145 -126 -245
l-12 -71 -318 0 c-337 0 -386 -5 -478 -48 -71 -33 -169 -131 -202 -202 -48
-102 -49 -124 -46 -935 l3 -760 22 -60 c13 -32 29 -65 36 -72 10 -10 84 59
385 360 l373 373 -12 74 c-23 150 9 358 78 493 85 169 221 305 390 390 135 69
343 101 493 78 l74 -12 198 198 c197 196 199 198 193 233 -27 146 -182 295
-343 329 -71 15 -432 13 -497 -3z"/>
<path d="M2430 3144 c-222 -47 -409 -237 -456 -463 -8 -40 -13 -75 -11 -77 1
-2 129 123 282 276 154 154 273 280 265 279 -8 0 -44 -7 -80 -15z"/>
<path d="M3762 3127 l-373 -373 12 -74 c23 -150 -9 -358 -78 -493 -140 -278
-407 -455 -713 -474 -54 -3 -127 -1 -170 6 l-74 12 -161 -161 -160 -160 877 0
c606 0 893 3 930 11 129 27 257 126 310 240 48 103 49 123 46 934 l-3 760 -22
60 c-13 32 -29 65 -36 72 -10 10 -84 -59 -385 -360z"/>
<path d="M2875 2239 c-272 -272 -279 -280 -240 -274 22 4 69 15 105 25 197 58
363 241 406 449 8 40 13 75 11 77 -1 2 -129 -123 -282 -277z"/>
</g>
</svg>
